<?xml version="1.0" encoding="utf-8"?>
<svg xmlns="http://www.w3.org/2000/svg" xmlns:xlink="http://www.w3.org/1999/xlink" style="margin: auto; background: none; display: block; shape-rendering: auto;" width="215px" height="215px" viewBox="0 0 100 100" preserveAspectRatio="xMidYMid">
<g transform="rotate(0 50 50)">
  <rect x="47.5" y="25" rx="2" ry="2" width="5" height="10" fill="#fe718d">
    <animate attributeName="opacity" values="1;0" keyTimes="0;1" dur="1.5625s" begin="-1.450892857142857s" repeatCount="indefinite"></animate>
  </rect>
</g><g transform="rotate(25.714285714285715 50 50)">
  <rect x="47.5" y="25" rx="2" ry="2" width="5" height="10" fill="#fe718d">
    <animate attributeName="opacity" values="1;0" keyTimes="0;1" dur="1.5625s" begin="-1.3392857142857142s" repeatCount="indefinite"></animate>
  </rect>
</g><g transform="rotate(51.42857142857143 50 50)">
  <rect x="47.5" y="25" rx="2" ry="2" width="5" height="10" fill="#fe718d">
    <animate attributeName="opacity" values="1;0" keyTimes="0;1" dur="1.5625s" begin="-1.2276785714285714s" repeatCount="indefinite"></animate>
  </rect>
</g><g transform="rotate(77.14285714285714 50 50)">
  <rect x="47.5" y="25" rx="2" ry="2" width="5" height="10" fill="#fe718d">
    <animate attributeName="opacity" values="1;0" keyTimes="0;1" dur="1.5625s" begin="-1.1160714285714284s" repeatCount="indefinite"></animate>
  </rect>
</g><g transform="rotate(102.85714285714286 50 50)">
  <rect x="47.5" y="25" rx="2" ry="2" width="5" height="10" fill="#fe718d">
    <animate attributeName="opacity" values="1;0" keyTimes="0;1" dur="1.5625s" begin="-1.0044642857142856s" repeatCount="indefinite"></animate>
  </rect>
</g><g transform="rotate(128.57142857142858 50 50)">
  <rect x="47.5" y="25" rx="2" ry="2" width="5" height="10" fill="#fe718d">
    <animate attributeName="opacity" values="1;0" keyTimes="0;1" dur="1.5625s" begin="-0.8928571428571428s" repeatCount="indefinite"></animate>
  </rect>
</g><g transform="rotate(154.28571428571428 50 50)">
  <rect x="47.5" y="25" rx="2" ry="2" width="5" height="10" fill="#fe718d">
    <animate attributeName="opacity" values="1;0" keyTimes="0;1" dur="1.5625s" begin="-0.7812499999999999s" repeatCount="indefinite"></animate>
  </rect>
</g><g transform="rotate(180 50 50)">
  <rect x="47.5" y="25" rx="2" ry="2" width="5" height="10" fill="#fe718d">
    <animate attributeName="opacity" values="1;0" keyTimes="0;1" dur="1.5625s" begin="-0.6696428571428571s" repeatCount="indefinite"></animate>
  </rect>
</g><g transform="rotate(205.71428571428572 50 50)">
  <rect x="47.5" y="25" rx="2" ry="2" width="5" height="10" fill="#fe718d">
    <animate attributeName="opacity" values="1;0" keyTimes="0;1" dur="1.5625s" begin="-0.5580357142857142s" repeatCount="indefinite"></animate>
  </rect>
</g><g transform="rotate(231.42857142857142 50 50)">
  <rect x="47.5" y="25" rx="2" ry="2" width="5" height="10" fill="#fe718d">
    <animate attributeName="opacity" values="1;0" keyTimes="0;1" dur="1.5625s" begin="-0.4464285714285714s" repeatCount="indefinite"></animate>
  </rect>
</g><g transform="rotate(257.14285714285717 50 50)">
  <rect x="47.5" y="25" rx="2" ry="2" width="5" height="10" fill="#fe718d">
    <animate attributeName="opacity" values="1;0" keyTimes="0;1" dur="1.5625s" begin="-0.33482142857142855s" repeatCount="indefinite"></animate>
  </rect>
</g><g transform="rotate(282.85714285714283 50 50)">
  <rect x="47.5" y="25" rx="2" ry="2" width="5" height="10" fill="#fe718d">
    <animate attributeName="opacity" values="1;0" keyTimes="0;1" dur="1.5625s" begin="-0.2232142857142857s" repeatCount="indefinite"></animate>
  </rect>
</g><g transform="rotate(308.57142857142856 50 50)">
  <rect x="47.5" y="25" rx="2" ry="2" width="5" height="10" fill="#fe718d">
    <animate attributeName="opacity" values="1;0" keyTimes="0;1" dur="1.5625s" begin="-0.11160714285714285s" repeatCount="indefinite"></animate>
  </rect>
</g><g transform="rotate(334.2857142857143 50 50)">
  <rect x="47.5" y="25" rx="2" ry="2" width="5" height="10" fill="#fe718d">
    <animate attributeName="opacity" values="1;0" keyTimes="0;1" dur="1.5625s" begin="0s" repeatCount="indefinite"></animate>
  </rect>
</g>
<!-- [ldio] generated by https://loading.io/ --></svg>